<?xml version="1.0" encoding="utf-8"?>
<!-- Generator: Adobe Illustrator 23.0.1, SVG Export Plug-In . SVG Version: 6.00 Build 0)  -->
<svg version="1.1" id="Calque_1" xmlns="http://www.w3.org/2000/svg" xmlns:xlink="http://www.w3.org/1999/xlink" x="0px" y="0px"
	 viewBox="0 0 874 771.3" style="enable-background:new 0 0 874 771.3;" xml:space="preserve">
<style type="text/css">
	.st0{fill:#F2F2F2;}
	.st1{fill:#E4E4E4;}
	.st2{fill:#E3B64F;}
	.st3{fill:#F0F0F0;}
	.st4{fill:#9E616A;}
	.st5{fill:#2F2E41;}
	.st6{fill:#FFB6B6;}
	.st7{fill:#3F3D56;}
	.st8{fill:#CCCCCC;}
	.st9{fill:#E6E6E6;}
	.st10{opacity:0.2;}
</style>
<path class="st0" d="M510.1,90.8c-6.6-10.9-14.4-22.6-26.7-26.2c-14.2-4.1-28.8,4.1-41.2,12.2c-37,24.2-72.7,50.5-106.8,78.7l0,0.4
	c26.6-1.8,53.1-3.7,79.7-5.5c19.2-1.3,39-2.8,56-11.9c6.4-3.4,12.7-8,20-8.4c9.1-0.4,17,5.9,23.2,12.5
	c36.7,39.1,47.4,98.9,88.6,133.3C576.9,211.9,545.9,150,510.1,90.8z"/>
<path class="st1" d="M735.8,422.5c-4.1-5.1-5.7-6.3-9.7-11.5c-32.6-42.2-63.3-85.8-92-130.8c-19.5-30.6-38-61.8-55.6-93.5
	c-8.4-15.1-16.5-30.3-24.4-45.7c-6.1-11.9-12.1-23.9-18-35.9c-1.7-3.4-3.3-6.9-4.9-10.4c-3.8-8.1-7.6-16.3-11.6-24.3
	c-4.6-9.2-10.2-18.7-18.6-24.9c-3.8-2.9-8.4-4.7-13.2-5.1c-6.9-0.4-13.2,2.4-19.1,5.5c-43.5,22.9-84.1,50.9-121,83.4
	c-36.9,32.4-69.9,69-98.3,109.1c-0.9,1.2-2.9,0.1-2-1.2c3.5-4.9,7-9.7,10.6-14.5c44.6-59.4,99.4-110.4,161.7-150.8
	c10.5-6.8,21.2-13.3,32.1-19.4c5.5-3.1,11-6.2,16.6-9c5.5-2.8,11.3-5.4,17.6-5.5c21.4-0.3,32.4,23.8,40,40.1
	c2.4,5.1,4.8,10.2,7.2,15.3c9.2,19.3,18.8,38.5,28.8,57.4c6.1,11.7,12.4,23.4,18.8,34.9c19.9,36,41.1,71.4,63.6,105.9
	c29.7,45.8,59.2,86.3,93.1,129.1C738.4,422,736.8,423.7,735.8,422.5z"/>
<path class="st1" d="M345.7,117.4c-1.2-1.4-2.5-2.8-3.7-4.1c-9.8-10.9-20.4-21.7-33.9-27.9c-6.4-3.1-13.5-4.7-20.6-4.8
	c-7.4,0-14.6,2-21.4,4.7c-3.2,1.3-6.4,2.7-9.5,4.3c-3.5,1.8-7,3.7-10.5,5.6c-6.5,3.6-12.9,7.4-19.3,11.3
	c-12.6,7.8-24.8,16.2-36.7,25.2c-6.1,4.7-12.1,9.5-18,14.4c-5.5,4.6-10.8,9.4-16.1,14.2c-1.1,1-2.8-0.6-1.7-1.7
	c1.4-1.3,2.8-2.6,4.2-3.8c4-3.6,8-7.1,12-10.5c7.4-6.3,15.1-12.3,22.9-18.1c12.2-9,24.7-17.4,37.7-25.2c6.5-3.9,13.1-7.6,19.8-11.2
	c2-1.1,4.1-2.1,6.1-3.1c4.7-2.4,9.5-4.3,14.5-5.9c7.1-2.3,14.6-3,22-2.2c7.1,1,14,3.4,20.3,7c13.3,7.4,23.6,18.9,33.6,30.1
	C348.3,116.8,346.7,118.5,345.7,117.4z"/>
<path class="st1" d="M617.7,230.2l31.8-11.6l15.8-5.8c5.1-1.9,10.3-4,15.6-5.4c4.6-1.3,9.5-1.3,14.1,0.2c4.1,1.5,7.8,3.8,11,6.8
	c3.2,3,6.3,6.2,9,9.6c3.4,4.1,6.8,8.3,10.2,12.5c14,17.2,28,34.4,41.9,51.8c13.9,17.3,27.6,34.7,41.3,52.2
	c13.7,17.5,27.3,35.1,40.8,52.8c1.7,2.2,3.3,4.3,5,6.5c0.9,1.2,3,0,2-1.2c-13.6-17.8-27.3-35.6-41.1-53.3
	c-13.8-17.7-27.8-35.4-41.8-53c-14-17.6-28.2-35.1-42.4-52.5c-3.5-4.3-7.1-8.7-10.6-13c-3-3.7-6-7.4-9.3-10.8
	c-6-6.2-13.6-11.8-22.6-11.9c-5.3-0.1-10.4,1.6-15.4,3.4c-5.3,1.9-10.6,3.9-15.9,5.8L625,225l-8,2.9
	C615.6,228.4,616.2,230.7,617.7,230.2L617.7,230.2z"/>
<path class="st0" d="M303.8,99c-16.2-8.3-36.9-6.7-51.7,3.7c28.3,4.9,56.4,11.4,83.9,19.6C324.6,115.6,315.6,105.1,303.8,99z"/>
<path class="st0" d="M251.9,102.7l-3.1,2.5c1.1-0.9,2.1-1.7,3.3-2.5C252,102.7,252,102.7,251.9,102.7z"/>
<path class="st0" d="M704.8,230.3c-3.1-3.8-6.5-7.8-11.2-9.4l-4.4,0.2c33.3,58.8,78.2,110.2,132.1,151
	C782.5,324.9,743.6,277.6,704.8,230.3z"/>
<path d="M504.6,541.7c-0.1,0-0.2,0-0.3-0.1l-84.3-31c-0.5-0.2-0.8-0.8-0.6-1.3c0.2-0.5,0.8-0.8,1.3-0.6l84.3,31
	c0.5,0.2,0.8,0.8,0.6,1.3C505.4,541.5,505,541.7,504.6,541.7L504.6,541.7z"/>
<path d="M350.6,483.7c-0.1,0-0.2,0-0.3-0.1l-84.3-31c-0.5-0.2-0.8-0.8-0.6-1.3c0.2-0.5,0.8-0.8,1.3-0.6l84.3,31
	c0.5,0.2,0.8,0.8,0.6,1.3C351.4,483.5,351,483.7,350.6,483.7L350.6,483.7z"/>
<path d="M193.6,425.7c-0.1,0-0.2,0-0.3-0.1l-84.3-31c-0.5-0.2-0.8-0.8-0.6-1.3s0.8-0.8,1.3-0.6l84.3,31c0.5,0.2,0.8,0.8,0.6,1.3
	C194.4,425.5,194,425.7,193.6,425.7z"/>
<path class="st0" d="M177.8,275.4c-3.5-0.8-7.1-1.4-10.6-1.8l-0.5-0.1c-23.3-2.8-43,7-45.8,22.6l-0.5,2.8c-0.3,1.8-0.6,3.7-1,5.9
	c-0.2,1.1,0.9,2.1,2.4,2.5l560.9,125.4c39.6,8.6,79.1,17,117.3,25.1c7.2,1.6,14.4,2.8,21.7,3.5c10.9,0.9,18.9-0.3,24.5-3.7l0,0
	c6.9-4.3,8.6-11.2,10-19.1c2.8-16,5.9-32.8,8.9-49.5c2.7-14.8,5.3-29.5,7.8-43.6c1.5-8.4,2.3-15.9-2.9-22.9
	c-5.6-7.6-17.6-13.5-35.6-17.5c-0.2,0-0.4-0.1-0.7-0.1c-56.6-12.4-117.6-2.5-151.9,24.5c-3.9,3.1-7.7,6.6-11.4,9.9
	c-5.4,5.1-11.2,9.9-17.3,14.2c-3.4,2.3-6.9,4.3-10.7,6c-0.3,0.1-0.5,0.3-0.9,0.4c-0.7,0.3-1.4,0.6-2.1,0.9
	c-4.1,1.6-8.3,2.7-12.7,3.4l-0.4,0.1c-0.3,0.1-0.7,0.1-1,0.1c-2.5,0.3-5,0.5-7.5,0.6c-10.8,0.3-22.6-1.7-35-5.9
	c-11.4-3.9-22.4-9.2-32.6-15.8c-10.8-6.9-20.6-14.7-30.1-22.3c-4.2-3.3-8.5-6.7-12.8-10c-0.8-0.6-1.6-1.2-2.4-1.8
	c-5.3-4-10.2-7.4-14.9-10.3c-11.5-7.4-24-13.1-37.1-17c-13.9-4-26.6-5.1-37.9-3.3c-3.1,0.5-6.2,1.3-9.3,2.3
	c-13.9,4.6-23.9,13.7-33.6,22.6c-12,11-24.5,22.4-44.6,25.2c-23.3,3.3-53.8-7.1-74.7-17.9c-6.6-3.4-13-7.1-19.3-10.6
	c-2.5-1.4-5.1-2.9-7.6-4.3c-5-2.8-9.1-5-12.9-6.9l-1.2-0.6c-0.7-0.3-1.3-0.7-2-1c-4.6-2.2-8.8-4.2-13.1-5.9l-1-0.4
	c-2-0.8-3.9-1.5-5.8-2.1l-0.7-0.3C185.5,277.3,181.7,276.2,177.8,275.4z"/>
<path d="M847,463.7c-0.1,0-0.1,0-0.2,0l-740-156.2c-0.5-0.1-0.9-0.7-0.8-1.2c0.1-0.5,0.6-0.9,1.2-0.8l740,156.2
	c0.5,0.1,0.9,0.6,0.8,1.2C847.9,463.4,847.5,463.7,847,463.7z"/>
<circle class="st2" cx="693.5" cy="51" r="51"/>
<path class="st3" d="M785.5,11.9c-24.7-3.3-52.9,10-59.3,34.1c-4.2-11.2-16.7-16.8-27.8-12.6c-6.5,2.5-11.5,7.9-13.3,14.7l2.8,2
	c53,11.5,107.8,11.2,160.7-0.7C831.4,31.3,810.3,15.2,785.5,11.9z"/>
<path class="st3" d="M679.5,79.9c-24.7-3.3-52.9,10-59.3,34.1c-4.2-11.2-16.7-16.8-27.8-12.6c-6.5,2.5-11.5,7.9-13.3,14.7l2.8,2
	c53,11.5,107.8,11.2,160.7-0.7C725.4,99.3,704.3,83.2,679.5,79.9z"/>
<path class="st4" d="M723.9,489.1c-3.8-3.8-3.8-10,0-13.8c0.4-0.4,0.8-0.8,1.3-1.1L709.7,397l17.2,5.5l12.4,74.7
	c2.8,4.6,1.3,10.7-3.4,13.5C732,493,727.1,492.3,723.9,489.1z"/>
<path class="st5" d="M700.9,325.8l10.6-8c0,0,9.4-0.7,11.1,16.3s5.1,50,5.1,50l16.3,75.5l-22.6,5L704,382.9l-10.5-24.2L700.9,325.8z
	"/>
<polygon class="st4" points="718.5,449 658.5,448 653.5,407 718.5,407 "/>
<polygon class="st4" points="663,699.8 649.2,699.8 642.6,646.4 663,646.4 "/>
<polygon class="st4" points="751.3,680.6 737.4,680.5 731.2,627.1 749.2,631.2 "/>
<polygon class="st6" points="708,371.7 711.1,379.9 710.5,388 649,409.3 652.1,373.6 659,365.4 "/>
<circle class="st4" cx="681.6" cy="276.3" r="21.9"/>
<path class="st5" d="M669.2,726.1h-9.8l-1.8-9.3l-4.5,9.3h-26.1c-3.2,0-5.9-2.6-5.9-5.9c0-1.9,0.9-3.7,2.5-4.8l20.8-14.4v-9.4
	l21.9,1.3L669.2,726.1z"/>
<path class="st5" d="M758.5,707l-9.8-0.1l-1.7-9.3l-4.6,9.2l-26.1-0.2c-3.2,0-5.8-2.7-5.8-5.9c0-1.9,1-3.7,2.6-4.8l20.9-14.2
	l0.1-9.4l21.9,1.5L758.5,707z"/>
<path class="st5" d="M755.6,642.6L745.5,581l-12-85c8.8-16.3-11-67-11-67l-2.8,0.1l-63.2,11.9l0-0.1c-12.9,35.3-17.2,52.7-16.5,90.2
	l2.5,135h-0.8c-2.8,0-5,2.2-5,5s2.2,5,5,5h25c2.8,0,5-2.2,5-5s-2.2-5-5-5h-0.6L689,505.5l19.5,67.5l22,69c-8-2-6.8,2.6-6.8,5.3
	c0,2.8,2.2,5,5,5h25c2.8,0,5-2.2,5-5C758.7,645.2,757.5,643.4,755.6,642.6L755.6,642.6z"/>
<path class="st5" d="M727.4,431.6l-2-20c-0.4-1.7-1.9-2.9-3.6-3c-0.8-9.5-4.3-50.6-4.5-52.4l0-0.1l-1.6-34.1
	c-0.1-2.6-2.1-4.6-4.7-4.8l-8.4-0.6c-0.2,0-0.4-0.2-0.4-0.4c0-3.9-3.2-7.1-7.1-7.1l0,0h-24.9c-3.3,0-6.2,2.5-6.6,5.8
	c0,0.2-0.2,0.4-0.4,0.4l0,0c-5.9-0.1-10.9,4.1-11.9,9.8c-3.4,19.8-10.2,64.8-6.9,89.9c1.2,8.7-1.4,1.8-1.8,9.1
	c-0.1,1.4,0.4,2.8,1.3,3.9c-2.1,0.6-2.9,2.8-2.3,4.9l-0.4-0.1c0.5,2.1,2.7,3.4,4.9,2.9l76.6-19.3C724.7,415.9,728,433.8,727.4,431.6
	z"/>
<path class="st4" d="M643.1,489.1c3.8-3.8,3.8-10,0-13.8c-0.4-0.4-0.9-0.8-1.3-1.1l15.5-77.2l-17.2,5.5l-12.4,74.7
	c-2.8,4.6-1.3,10.7,3.4,13.5C635,493,639.9,492.3,643.1,489.1z"/>
<path class="st5" d="M666.1,325.8l-10.6-8c0,0-9.4-0.7-11.1,16.3s-5.1,50-5.1,50L623,459.4l22.6,5l17.5-81.4l10.5-24.2L666.1,325.8z
	"/>
<path class="st5" d="M705.1,256.8c4.1,1.2,7.9-2.2,10.7-5.4l-1,1.2c6.7,4.7,10.7,12.4,13.3,20.2c2.6,7.8,4,15.9,7,23.5
	c2.9,7.6,7.7,15,14.9,18.9c9.7,5.1,21.6,2.8,31.9-0.9c0.1-0.1,0.3-0.1,0.4-0.1c-4.2-7.8-6.7-16.4-7.5-25.2
	c4.2,8.3,10.4,15.5,17.9,21c6.7-3.1,13.2-6.7,19.4-10.8c4-2.7,8.2-6.1,8.6-10.9c0.5-4.7-3.1-9.1-7.2-11.3c-4.2-2.3-9-3.1-13.5-4.4
	c-4.5-1.4-9.2-3.6-11.6-7.7c-5.5-9.5,3.8-22.8-2.2-32c-2.9-4.5-8.6-6.3-13.8-7.6c-8-1.9-16.1-3.3-24.3-4.1c-7.2-0.7-14.6-1-21.5,1.3
	c-6.8,2.3-13,7.7-14.5,14.8c-4,2.1-8.2,4.4-10.4,8.4C699.6,249.5,700.8,255.5,705.1,256.8z"/>
<path class="st5" d="M711.2,255.2c3.9,4.9,6,10.2,6,13.4c8.1,14.9-3.5,27.6-18.4,35.8c-5.9,3.3-12.8,4.5-19.5,3.4l-0.6-2.7l-0.8,2.4
	c0,0-9.7,32-12.9,33.8c1.2-5.7,2.6-32,3.3-37.6c0.9-7.6-2.3-18.8-4.7-25.6c-1.5-4.2-2.2-8.6-2.2-13.1v-0.2l-2.3,7.3l-8.3-3.5
	c1.5-8.9,0-19,18.6-18.1c10-6.9,18.9-8,26.1-6c0.9-1.4,6.3,1.3,7.9,0.5"/>
<path class="st2" d="M732,411.2c-0.7,6.5-5.8,11.6-12.2,12.5l-45.2,6.1c-7.8,1-14.9-4.4-16-12.2l-6.5-48.1c-0.4-3.1,0.2-6.3,1.8-9
	l-0.3-2.3c-3.9-1.4-5.9-5.7-4.5-9.6c0.5-1.4,1.5-2.7,2.7-3.5l5.6-25.9c-0.3-2.2,1.2-4.2,3.4-4.5c0.1,0,0.3,0,0.4,0
	c2.1,0,3.9,1.5,4.1,3.6l0.5,3.8c1.5,10.9,11.6,18.6,22.5,17.1c9.9-1.3,17.3-9.8,17.3-19.8c0-0.9-0.1-1.8-0.2-2.7l-0.5-3.7
	c-0.3-2.2,1.1-4.2,3.2-4.7c2.2-0.4,4.3,1,4.7,3.2c0,0.1,0,0.1,0,0.2l3.2,23.8c4.1-0.3,7.7,2.8,8,7c0.2,3.2-1.6,6.2-4.6,7.5
	c3.3,2.3,5.4,5.8,6,9.7l6.5,48.1C732.1,408.9,732.1,410.1,732,411.2z"/>
<path class="st7" d="M652.9,359.2c-0.1-0.8,0.5-1.6,1.3-1.7l61.6-9.4c0.8-0.1,1.6,0.5,1.7,1.3s-0.5,1.6-1.3,1.7l0,0l-61.6,9.4
	C653.8,360.6,653,360,652.9,359.2z"/>
<path class="st7" d="M660.1,384.5l-2-15c-0.3-2.4,1.4-4.6,3.8-5l58.8-7.5c2.4-0.3,4.6,1.4,5,3.8l2,15c0.3,2.4-1.4,4.6-3.8,5
	l-23.5,3.2c0,0.2,0.1,0.3,0.1,0.5l2.1,15.4l19.8-2.7c0.5-0.1,1.1,0.3,1.1,0.9c0.1,0.5-0.3,1.1-0.9,1.1l-19.8,2.7l-8.9,1.2l-18.8,2.5
	c-0.5,0.1-1.1-0.3-1.1-0.9c-0.1-0.5,0.3-1.1,0.9-1.1l18.8-2.5l-2.1-15.4c0-0.2,0-0.3,0-0.5l-26.5,3.1
	C662.7,388.6,660.4,386.9,660.1,384.5z"/>
<path d="M429,771.3c-0.2,0-0.5-0.1-0.7-0.3L0.3,385.2c-0.4-0.4-0.4-1-0.1-1.4c0.4-0.4,1-0.4,1.4-0.1l428,385.8
	c0.4,0.4,0.4,1,0.1,1.4C429.6,771.2,429.3,771.3,429,771.3z"/>
<path class="st8" d="M653,381.6c0.1-1.1-0.8-2.1-1.9-2.2c-0.1,0-0.2,0-0.3,0c-0.1,0-0.2,0-0.3,0l-12.7,2.9c-0.6,0.1-1.1,0.5-1.3,1
	c-0.2,0-0.4,0-0.5,0.1c-1.7,0.4-2.7,2-2.3,3.7c0.4,1.7,2,2.7,3.7,2.3c0,0,0,0,0,0c0.5-0.1,0.9-0.3,1.2-0.6l4.3,12.1
	c0.4,0.8,1.3,1.2,2.2,1l8.2-1.9c0.9-0.2,1.5-0.9,1.6-1.8L653,381.6z M637.2,388.6c-1.2,0.3-2.4-0.5-2.6-1.7
	c-0.3-1.2,0.5-2.4,1.7-2.6l0,0c0,0,0.1,0,0.1,0c0,0.4,0.1,0.7,0.3,1l1.6,2.7C637.9,388.3,637.6,388.5,637.2,388.6L637.2,388.6z"/>
<path class="st9" d="M650.9,379.4c0.1,1.6-2.6,3.4-6.3,4.2c-3.4,0.7-6.4,0.2-7.2-1c0.2-0.1,0.4-0.2,0.5-0.2l12.7-2.9
	C650.7,379.4,650.8,379.4,650.9,379.4z"/>
<path class="st2" d="M644.3,411.4l-3.7-7.6c-2.2-4.5,1.8-9.2,8.8-10.6l8.6-1.5l3.6,25.2l-0.7,0.1
	C653.9,418.4,646.4,415.8,644.3,411.4z"/>
<g class="st10">
	<path d="M732,411.2c-0.7,6.5-5.8,11.6-12.2,12.5l-45.2,6.1c-5.5,0.7-10.9-1.8-13.9-6.4c2.6-3.1,6.3-5,10.4-5.2
		c3.9-0.2,7.6,1.1,11.4,1.8c9.2,1.7,18.7,0.2,26.8-4.5c3.5-2,6.7-4.7,10.6-6.1c3.9-1.5,8.9-1.4,11.7,1.4
		C731.8,411,731.9,411.1,732,411.2z"/>
</g>
</svg>
